<svg width="50" height="50" viewBox="0 0 50 50" fill="none" xmlns="http://www.w3.org/2000/svg">
<path d="M41.6797 6.25H8.32031C7.17773 6.25 6.25 7.17773 6.25 8.32031V41.6797C6.25 42.8223 7.17773 43.75 8.32031 43.75H25V28.9062H20.5176V23.4375H25V19.3945C25 14.5508 28.3594 11.9141 32.6855 11.9141C34.7559 11.9141 36.9824 12.0703 37.5 12.1387V17.1973H34.0527C31.6992 17.1973 31.25 18.3105 31.25 19.9512V23.4375H36.8555L36.123 28.9062H31.25V43.75H41.6797C42.8223 43.75 43.75 42.8223 43.75 41.6797V8.32031C43.75 7.17773 42.8223 6.25 41.6797 6.25Z" fill="#C4C4C4"/>
</svg>
